<svg width="143" height="49" viewBox="0 0 143 49" fill="none" xmlns="http://www.w3.org/2000/svg">
<path d="M0.29497 37.52C17.5729 35.3143 72.4113 28.7078 142.709 37.424C143 37.4595 141.489 39.1288 141.198 39.1142C125.048 38.5925 79.5837 34.8615 2.05858 39.1831C1.76781 39.1998 -1.84587e-05 37.5575 0.29497 37.52ZM24.916 14.8667C26.0749 14.8667 27.7479 14.2636 28.6371 13.5249L33.1146 9.80017H26.2076C25.0487 9.80017 23.3736 10.4032 22.4865 11.1419L18.0069 14.8667H24.916ZM87.6243 27.2012L81.6149 22.7169C86.2294 22.1138 87.4494 19.182 87.4494 16.4234C87.363 13.0596 85.0115 9.95459 77.4366 9.95459H63.0686V27.2012H69.512L69.5983 13.5771H75.869C79.0022 13.5771 80.9259 14.5266 80.9259 16.4234C80.9259 18.5789 78.6608 19.5263 76.1366 19.5263H72.2849C71.2313 19.5263 71.0459 20.0626 71.8634 20.7199L79.8745 27.2012H87.6243ZM116.274 27.2012L110.265 22.7169C114.879 22.1138 116.099 19.182 116.099 16.4234C116.013 13.0596 113.661 9.95459 106.084 9.95459H91.7183V27.2012H98.1617L98.2481 13.5771H104.51C107.643 13.5771 109.567 14.5266 109.567 16.4234C109.567 18.5789 107.304 19.5263 104.78 19.5263H100.928C99.8747 19.5263 99.6893 20.0626 100.507 20.7199L108.514 27.2012H116.274ZM142.657 9.94624H134.645L129.508 16.3274L124.285 9.94624H116.274L126.287 20.7262V27.1929H132.73V20.7262L142.657 9.94624ZM58.1928 9.94624H36.3363V27.1929H58.1928V23.3137H42.8661V20.0355H54.1873V16.5861H42.8661V13.5688H58.1928V9.94624ZM32.3307 27.2012L18.0027 14.875L13.9066 18.339C13.8589 18.3781 13.8205 18.4272 13.7941 18.4828C13.7677 18.5383 13.7541 18.5989 13.7541 18.6603C13.7541 18.7217 13.7677 18.7823 13.7941 18.8379C13.8205 18.8934 13.8589 18.9425 13.9066 18.9817L23.5991 27.2012H32.3307ZM6.121 9.94624H12.6508V27.1929H6.121V9.94624Z" fill="#6D696E"/>
</svg>
