<svg width="109" height="59" viewBox="0 0 109 59" fill="none" xmlns="http://www.w3.org/2000/svg">
<g clip-path="url(#clip0_470_67)">
<path d="M75.2305 34.4423C75.8627 33.9963 76.5472 33.4724 77.1838 32.9745C82.089 29.0779 85.8388 24.8045 86.58 22.4405C86.6018 22.3626 86.6672 22.1418 86.6672 21.9729C86.6672 21.7305 86.5495 21.5573 86.3271 21.5573C84.0729 21.5573 76.8481 28.7012 75.0997 34.4899V34.5116L75.2305 34.4423ZM57.1139 33.6197C63.9463 28.4934 71.1232 21.0334 71.8906 17.9723C71.9124 17.8728 71.9342 17.7732 71.9342 17.6822C71.9255 17.4788 71.8121 17.3012 71.5548 17.3012C69.3922 17.2969 59.3812 26.4671 57.1139 33.6197ZM15.1691 38.1225C13.3639 36.8799 10.5778 35.7931 8.08377 35.7931C5.66823 35.7931 4.12037 36.737 4.12037 37.9276C4.12037 39.2915 5.99524 39.889 8.09685 39.889C10.6432 39.889 12.9541 39.2092 15.1691 38.1225ZM36.0935 22.0509C40.99 20.4922 45.638 17.232 49.1043 13.8289C52.3047 10.6769 54.8684 6.94041 54.8684 5.08733C54.8684 4.66302 54.5632 4.4119 54.1752 4.4119C52.6927 4.4119 49.8804 6.36457 46.0958 10.1314C43.1483 13.0582 39.7168 17.0631 36.0935 22.0509ZM109 33.8058C104.792 37.9623 91.6858 49.3882 88.2194 59L83.9247 57.9003C85.3286 53.917 89.558 47.7256 94.2713 42.95C93.2685 43.3224 92.2221 43.4653 91.3849 43.4653C90.1117 43.4653 89.122 43.0842 88.5246 42.3655C88.0973 41.8503 87.8837 41.1749 87.8837 40.3739C87.8837 40.2007 87.8968 40.0232 87.9186 39.8284C83.7808 42.3309 80.454 43.4609 77.1925 43.4609C74.6549 43.4609 72.5184 42.3612 71.5287 40.4388C67.4214 42.4608 63.4798 43.4609 60.1879 43.4609C57.1227 43.4609 54.6504 42.253 53.5168 40.0578C49.3659 42.3742 45.8298 43.4609 43.0175 43.4609C41.3999 43.4609 40.1136 43.015 39.2939 42.1707C38.6878 41.5472 38.3695 40.7116 38.3216 39.7461C35.6575 41.4909 31.7682 43.4609 27.783 43.4609C23.7019 43.4609 20.9681 42.0711 18.8447 40.69C15.4568 42.5517 11.7289 43.4609 7.79164 43.4609C4.80492 43.4609 3.96432e-06 42.2313 3.96432e-06 37.9926C-0.00435621 34.5722 3.58843 32.2515 8.40206 32.2515C12.4919 32.2515 16.4379 33.9617 18.9101 35.7412C21.2559 33.8838 23.7194 31.286 26.6276 27.6188C25.9866 27.6534 25.3631 27.6707 24.7484 27.6707C19.1848 27.6707 14.5368 26.0428 11.9992 23.1895C10.6824 21.7391 9.963 19.8471 9.98044 17.8944C9.98044 10.2093 19.7603 4.24305 28.3106 3.36413C28.8774 4.63704 29.3789 5.61554 29.9021 6.78455C21.4564 7.75871 14.4147 12.7248 14.4147 17.5783C14.4147 20.7693 18.025 23.9732 25.6902 23.9732C27.0026 23.9732 28.3237 23.8477 29.6187 23.6701C36.39 14.4004 46.7542 0 55.6751 0C58.313 0 59.6952 1.59331 59.6952 3.72349C59.6952 8.10942 55.8974 12.8287 53.4209 15.288C49.5359 19.1673 42.503 24.9387 32.6839 26.8481C28.8644 32.1303 25.725 35.6286 22.5857 38.1571C24.4867 39.1746 26.2744 39.8024 28.4022 39.8024C33.6867 39.8024 38.8143 35.0008 42.8169 30.9266L42.9564 30.7924L46.0783 33.217L45.9344 33.3859C44.1642 35.3991 42.5335 37.5336 42.5335 38.7243C42.5335 39.6292 43.3053 39.8067 43.968 39.8067C45.9911 39.8067 49.113 38.5035 52.7843 36.2651V36.2348C53.1898 27.2248 65.5727 13.4479 73.0853 13.4479C75.2087 13.4479 76.4252 14.4956 76.4252 16.3357C76.4252 20.8515 68.5812 30.5326 57.1663 37.945V37.9493C57.7549 39.2092 59.1153 39.8197 61.4218 39.8197C63.2225 39.8197 66.7456 39.023 70.9313 36.8496C71.4153 32.1822 74.0794 27.1685 77.4585 23.5965C80.8464 20.0203 84.6484 17.6952 87.9316 17.6952C89.9591 17.6952 91.1538 18.7993 91.1538 20.5398C91.1538 24.4798 86.5495 31.2124 75.4528 38.2654C75.9455 39.2092 76.896 39.8067 78.3785 39.8067C81.6835 39.8067 87.5043 36.304 92.0389 32.0004L95.296 34.5116C93.9051 36.1871 92.4967 38.0272 92.5447 39.088C92.5578 39.43 92.7889 39.6638 93.3383 39.6638C96.6825 39.6638 101.941 35.2822 105.887 31.4159L109 33.8058ZM48.5026 24.7742C49.9807 24.7742 51.171 25.9648 51.171 27.4283C51.171 28.896 49.9763 30.0823 48.4982 30.0823C47.0201 30.0823 45.8254 28.896 45.8254 27.4283C45.8254 25.9605 47.0245 24.7742 48.5026 24.7742Z" fill="#6D696E"/>
</g>
<defs>
<clipPath id="clip0_470_67">
<rect width="109" height="59" fill="white"/>
</clipPath>
</defs>
</svg>
