<svg width="168" height="122" viewBox="0 0 168 122" fill="none" xmlns="http://www.w3.org/2000/svg">
<path d="M164.421 110.638C164.364 110.065 164.121 109.62 163.69 109.303C163.259 108.985 162.674 108.827 161.935 108.827C161.434 108.827 161.01 108.898 160.664 109.04C160.318 109.177 160.053 109.369 159.869 109.615C159.689 109.861 159.599 110.141 159.599 110.453C159.589 110.714 159.644 110.941 159.762 111.135C159.885 111.329 160.053 111.497 160.266 111.639C160.479 111.777 160.726 111.897 161.005 112.001C161.284 112.101 161.583 112.186 161.9 112.257L163.207 112.57C163.841 112.712 164.424 112.901 164.954 113.138C165.484 113.375 165.943 113.666 166.332 114.011C166.72 114.357 167.021 114.764 167.234 115.233C167.452 115.702 167.563 116.239 167.568 116.845C167.563 117.735 167.336 118.507 166.886 119.161C166.441 119.809 165.797 120.313 164.954 120.673C164.116 121.028 163.105 121.206 161.921 121.206C160.747 121.206 159.724 121.026 158.853 120.666C157.987 120.306 157.309 119.774 156.822 119.068C156.339 118.358 156.086 117.48 156.062 116.433H159.038C159.071 116.921 159.21 117.328 159.457 117.655C159.708 117.977 160.041 118.221 160.458 118.386C160.88 118.547 161.355 118.628 161.886 118.628C162.407 118.628 162.859 118.552 163.242 118.401C163.63 118.249 163.931 118.038 164.144 117.768C164.357 117.499 164.464 117.188 164.464 116.838C164.464 116.511 164.367 116.237 164.173 116.014C163.983 115.792 163.704 115.602 163.335 115.446C162.97 115.29 162.523 115.148 161.992 115.02L160.408 114.622C159.182 114.324 158.214 113.857 157.504 113.223C156.793 112.589 156.441 111.734 156.445 110.659C156.441 109.778 156.675 109.009 157.148 108.351C157.627 107.693 158.282 107.179 159.116 106.81C159.949 106.44 160.896 106.256 161.957 106.256C163.036 106.256 163.978 106.44 164.783 106.81C165.593 107.179 166.223 107.693 166.673 108.351C167.122 109.009 167.354 109.771 167.369 110.638H164.421Z" fill="white"/>
<path d="M151.316 110.638C151.259 110.065 151.015 109.62 150.584 109.303C150.153 108.985 149.569 108.827 148.83 108.827C148.328 108.827 147.904 108.898 147.559 109.04C147.213 109.177 146.948 109.369 146.763 109.615C146.583 109.861 146.493 110.141 146.493 110.453C146.484 110.714 146.538 110.941 146.657 111.135C146.78 111.329 146.948 111.497 147.161 111.639C147.374 111.777 147.62 111.897 147.9 112.001C148.179 112.101 148.477 112.186 148.794 112.257L150.101 112.57C150.736 112.712 151.318 112.901 151.848 113.138C152.379 113.375 152.838 113.666 153.226 114.011C153.614 114.357 153.915 114.764 154.128 115.233C154.346 115.702 154.457 116.239 154.462 116.845C154.457 117.735 154.23 118.507 153.78 119.161C153.335 119.809 152.691 120.313 151.848 120.673C151.01 121.028 149.999 121.206 148.816 121.206C147.641 121.206 146.619 121.026 145.748 120.666C144.881 120.306 144.204 119.774 143.716 119.068C143.233 118.358 142.98 117.48 142.956 116.433H145.932C145.965 116.921 146.105 117.328 146.351 117.655C146.602 117.977 146.936 118.221 147.353 118.386C147.774 118.547 148.25 118.628 148.78 118.628C149.301 118.628 149.753 118.552 150.137 118.401C150.525 118.249 150.826 118.038 151.039 117.768C151.252 117.499 151.358 117.188 151.358 116.838C151.358 116.511 151.261 116.237 151.067 116.014C150.878 115.792 150.598 115.602 150.229 115.446C149.864 115.29 149.417 115.148 148.887 115.02L147.303 114.622C146.077 114.324 145.108 113.857 144.398 113.223C143.688 112.589 143.335 111.734 143.34 110.659C143.335 109.778 143.57 109.009 144.043 108.351C144.521 107.693 145.177 107.179 146.01 106.81C146.844 106.44 147.791 106.256 148.851 106.256C149.931 106.256 150.873 106.44 151.678 106.81C152.488 107.179 153.117 107.693 153.567 108.351C154.017 109.009 154.249 109.771 154.263 110.638H151.316Z" fill="white"/>
<path d="M131.179 121V106.455H140.98V108.99H134.254V112.456H140.476V114.991H134.254V118.465H141.009V121H131.179Z" fill="white"/>
<path d="M119.831 121V106.455H122.907V118.465H129.142V121H119.831Z" fill="white"/>
<path d="M117.291 106.455V121H114.634L108.306 111.845H108.2V121H105.124V106.455H107.823L114.102 115.602H114.229V106.455H117.291Z" fill="white"/>
<path d="M102.594 106.455V121H99.5189V106.455H102.594Z" fill="white"/>
<path d="M87.065 121H83.7695L88.7908 106.455H92.7539L97.7681 121H94.4727L90.8292 109.778H90.7156L87.065 121ZM86.859 115.283H94.6431V117.683H86.859V115.283Z" fill="white"/>
<path d="M72.4219 108.99V106.455H84.3679V108.99H79.9148V121H76.875V108.99H72.4219Z" fill="white"/>
<path d="M67.761 110.638C67.7042 110.065 67.4604 109.62 67.0295 109.303C66.5986 108.985 66.0139 108.827 65.2753 108.827C64.7734 108.827 64.3496 108.898 64.0039 109.04C63.6583 109.177 63.3931 109.369 63.2085 109.615C63.0286 109.861 62.9386 110.141 62.9386 110.453C62.9291 110.714 62.9836 110.941 63.102 111.135C63.2251 111.329 63.3931 111.497 63.6062 111.639C63.8193 111.777 64.0655 111.897 64.3449 112.001C64.6242 112.101 64.9225 112.186 65.2397 112.257L66.5466 112.57C67.181 112.712 67.7634 112.901 68.2937 113.138C68.824 113.375 69.2833 113.666 69.6716 114.011C70.0598 114.357 70.3605 114.764 70.5735 115.233C70.7914 115.702 70.9026 116.239 70.9074 116.845C70.9026 117.735 70.6753 118.507 70.2255 119.161C69.7805 119.809 69.1365 120.313 68.2937 120.673C67.4556 121.028 66.4448 121.206 65.261 121.206C64.0868 121.206 63.0641 121.026 62.1929 120.666C61.3264 120.306 60.6493 119.774 60.1616 119.068C59.6787 118.358 59.4253 117.48 59.4017 116.433H62.3775C62.4107 116.921 62.5503 117.328 62.7966 117.655C63.0475 117.977 63.3813 118.221 63.798 118.386C64.2194 118.547 64.6952 118.628 65.2255 118.628C65.7464 118.628 66.1985 118.552 66.5821 118.401C66.9703 118.249 67.271 118.038 67.4841 117.768C67.6971 117.499 67.8037 117.188 67.8037 116.838C67.8037 116.511 67.7066 116.237 67.5125 116.014C67.3231 115.792 67.0437 115.602 66.6744 115.446C66.3098 115.29 65.8624 115.148 65.3321 115.02L63.7483 114.622C62.5219 114.324 61.5537 113.857 60.8434 113.223C60.1332 112.589 59.7805 111.734 59.7852 110.659C59.7805 109.778 60.0148 109.009 60.4883 108.351C60.9665 107.693 61.6223 107.179 62.4556 106.81C63.289 106.44 64.2359 106.256 65.2966 106.256C66.3761 106.256 67.3183 106.44 68.1233 106.81C68.9329 107.179 69.5627 107.693 70.0125 108.351C70.4623 109.009 70.6943 109.771 70.7085 110.638H67.761Z" fill="white"/>
<path d="M43.8281 106.455L46.7614 111.412H46.875L49.8224 106.455H53.2955L48.8565 113.727L53.3949 121H49.858L46.875 116.036H46.7614L43.7784 121H40.2557L44.8082 113.727L40.3409 106.455H43.8281Z" fill="white"/>
<path d="M28.6985 121V106.455H38.4997V108.99H31.7738V112.456H37.9954V114.991H31.7738V118.465H38.5281V121H28.6985Z" fill="white"/>
<path d="M15.7493 121V106.455H21.488C22.5912 106.455 23.5311 106.665 24.3076 107.087C25.0841 107.503 25.6759 108.083 26.0831 108.827C26.4951 109.565 26.701 110.418 26.701 111.384C26.701 112.349 26.4927 113.202 26.076 113.94C25.6594 114.679 25.0557 115.254 24.265 115.666C23.479 116.078 22.5273 116.284 21.4098 116.284H17.7522V113.82H20.9127C21.5045 113.82 21.9922 113.718 22.3757 113.514C22.764 113.306 23.0528 113.019 23.2422 112.655C23.4364 112.286 23.5334 111.862 23.5334 111.384C23.5334 110.901 23.4364 110.479 23.2422 110.119C23.0528 109.755 22.764 109.473 22.3757 109.274C21.9875 109.071 21.4951 108.969 20.8985 108.969H18.8246V121H15.7493Z" fill="white"/>
<path d="M3.29545 121H0L5.02131 106.455H8.98438L13.9986 121H10.7031L7.05966 109.778H6.94602L3.29545 121ZM3.08949 115.283H10.8736V117.683H3.08949V115.283Z" fill="white"/>
<path d="M9.62832 45.8764L26.9723 31.9463H27.8322L12.1518 45.8764V96H39.9047V36.5611L68.5482 17.5914L70.0815 17.5948L55.8548 36.17V96H86.4371L86.5221 24.6908L122.206 1.17679H124.572L105.866 24.4692V96H110.702V24.4692L125.759 1.17679H126.768L118.359 24.5733L118.354 24.5901H118.359V96H166.524V24.0764L128.717 0H122.179L85.3564 24.0109L73.5952 16.6463H68.3762L38.4492 36.3295L30.2579 31.1992H26.4075L3.52417 45.8764V96H9.62832V45.8764Z" fill="white"/>
</svg>
