<svg width="168" height="136" viewBox="0 0 168 136" fill="none" xmlns="http://www.w3.org/2000/svg">
<path d="M166.675 130.545C166.622 130.372 166.548 130.218 166.455 130.081C166.363 129.943 166.252 129.825 166.122 129.727C165.994 129.629 165.847 129.555 165.681 129.506C165.515 129.455 165.334 129.429 165.138 129.429C164.786 129.429 164.473 129.518 164.198 129.695C163.923 129.872 163.707 130.131 163.55 130.474C163.394 130.815 163.316 131.231 163.316 131.721C163.316 132.215 163.394 132.634 163.55 132.977C163.705 133.32 163.921 133.581 164.198 133.76C164.475 133.937 164.797 134.025 165.164 134.025C165.496 134.025 165.784 133.961 166.026 133.834C166.271 133.706 166.46 133.525 166.592 133.29C166.724 133.054 166.79 132.777 166.79 132.459L167.059 132.501H165.282V131.574H167.938V132.36C167.938 132.921 167.818 133.405 167.58 133.814C167.341 134.223 167.013 134.539 166.595 134.76C166.178 134.98 165.698 135.09 165.157 135.09C164.554 135.09 164.025 134.954 163.569 134.684C163.115 134.411 162.76 134.024 162.504 133.523C162.251 133.021 162.124 132.424 162.124 131.734C162.124 131.205 162.199 130.733 162.348 130.318C162.499 129.902 162.71 129.55 162.981 129.26C163.251 128.968 163.569 128.747 163.933 128.595C164.297 128.442 164.694 128.365 165.122 128.365C165.484 128.365 165.822 128.418 166.135 128.525C166.448 128.629 166.726 128.778 166.969 128.972C167.214 129.166 167.416 129.396 167.573 129.663C167.731 129.929 167.834 130.223 167.883 130.545H166.675Z" fill="#838383"/>
<path d="M160.728 128.455V135H159.674L156.589 130.542H156.535V135H155.349V128.455H156.41L159.491 132.916H159.549V128.455H160.728Z" fill="#838383"/>
<path d="M153.795 128.455V135H152.61V128.455H153.795Z" fill="#838383"/>
<path d="M146.486 135V128.455H148.941C149.444 128.455 149.865 128.542 150.206 128.717C150.549 128.891 150.808 129.136 150.983 129.452C151.16 129.765 151.248 130.13 151.248 130.548C151.248 130.968 151.159 131.332 150.98 131.641C150.803 131.948 150.542 132.185 150.197 132.354C149.852 132.52 149.428 132.603 148.925 132.603H147.176V131.619H148.765C149.059 131.619 149.3 131.578 149.487 131.497C149.675 131.414 149.813 131.294 149.903 131.136C149.994 130.976 150.04 130.78 150.04 130.548C150.04 130.316 149.994 130.118 149.903 129.954C149.811 129.787 149.672 129.662 149.484 129.576C149.297 129.489 149.055 129.445 148.759 129.445H147.672V135H146.486ZM149.868 132.034L151.488 135H150.165L148.573 132.034H149.868Z" fill="#838383"/>
<path d="M140.749 135V128.455H145.006V129.449H141.935V131.226H144.786V132.22H141.935V134.006H145.032V135H140.749Z" fill="#838383"/>
<path d="M135.013 135V128.455H139.27V129.449H136.198V131.226H139.049V132.22H136.198V134.006H139.295V135H135.013Z" fill="#838383"/>
<path d="M133.451 128.455V135H132.396L129.312 130.542H129.257V135H128.072V128.455H129.133L132.214 132.916H132.271V128.455H133.451Z" fill="#838383"/>
<path d="M126.518 128.455V135H125.332V128.455H126.518Z" fill="#838383"/>
<path d="M122.653 130.545C122.6 130.372 122.526 130.218 122.432 130.081C122.341 129.943 122.23 129.825 122.1 129.727C121.972 129.629 121.825 129.555 121.659 129.506C121.493 129.455 121.312 129.429 121.116 129.429C120.764 129.429 120.451 129.518 120.176 129.695C119.901 129.872 119.685 130.131 119.527 130.474C119.372 130.815 119.294 131.231 119.294 131.721C119.294 132.215 119.372 132.634 119.527 132.977C119.683 133.32 119.899 133.581 120.176 133.76C120.453 133.937 120.775 134.025 121.141 134.025C121.474 134.025 121.761 133.961 122.004 133.834C122.249 133.706 122.438 133.525 122.57 133.29C122.702 133.054 122.768 132.777 122.768 132.459L123.036 132.501H121.259V131.574H123.915V132.36C123.915 132.921 123.796 133.405 123.557 133.814C123.319 134.223 122.991 134.539 122.573 134.76C122.155 134.98 121.676 135.09 121.135 135.09C120.532 135.09 120.002 134.954 119.546 134.684C119.093 134.411 118.738 134.024 118.482 133.523C118.229 133.021 118.102 132.424 118.102 131.734C118.102 131.205 118.176 130.733 118.326 130.318C118.477 129.902 118.688 129.55 118.958 129.26C119.229 128.968 119.546 128.747 119.911 128.595C120.275 128.442 120.671 128.365 121.1 128.365C121.462 128.365 121.8 128.418 122.113 128.525C122.426 128.629 122.704 128.778 122.947 128.972C123.192 129.166 123.393 129.396 123.551 129.663C123.709 129.929 123.812 130.223 123.861 130.545H122.653Z" fill="#838383"/>
<path d="M116.706 128.455V135H115.651L112.567 130.542H112.513V135H111.327V128.455H112.388L115.469 132.916H115.527V128.455H116.706Z" fill="#838383"/>
<path d="M105.59 135V128.455H109.847V129.449H106.776V131.226H109.627V132.22H106.776V134.006H109.873V135H105.59Z" fill="#838383"/>
<path d="M98.7549 135.096C98.3075 135.096 97.9229 135.015 97.6012 134.853C97.2794 134.691 97.0312 134.473 96.8565 134.198C96.6839 133.921 96.5976 133.609 96.5976 133.261C96.5976 132.999 96.6509 132.767 96.7574 132.565C96.8661 132.362 97.0152 132.175 97.2049 132.002C97.3966 131.83 97.6182 131.658 97.8696 131.488L99.0298 130.698C99.2002 130.587 99.3291 130.47 99.4165 130.347C99.506 130.223 99.5507 130.078 99.5507 129.912C99.5507 129.771 99.4911 129.638 99.3718 129.512C99.2546 129.387 99.0926 129.324 98.886 129.324C98.7475 129.324 98.625 129.357 98.5184 129.423C98.414 129.487 98.332 129.571 98.2723 129.675C98.2148 129.78 98.186 129.891 98.186 130.008C98.186 130.151 98.2254 130.295 98.3043 130.442C98.3852 130.589 98.4897 130.742 98.6175 130.899C98.7475 131.057 98.886 131.224 99.033 131.401L102.104 135H100.852L98.3011 132.079C98.1115 131.857 97.9282 131.639 97.7514 131.424C97.5767 131.208 97.4328 130.985 97.3199 130.752C97.2091 130.518 97.1537 130.265 97.1537 129.992C97.1537 129.683 97.2251 129.407 97.3679 129.164C97.5106 128.919 97.7098 128.726 97.9655 128.586C98.2233 128.445 98.5248 128.375 98.87 128.375C99.2152 128.375 99.5113 128.443 99.7585 128.579C100.006 128.716 100.196 128.897 100.331 129.123C100.465 129.348 100.532 129.594 100.532 129.861C100.532 130.17 100.455 130.447 100.302 130.692C100.148 130.935 99.9353 131.155 99.6626 131.353L98.3394 132.322C98.1221 132.479 97.9666 132.639 97.8728 132.801C97.7791 132.961 97.7322 133.097 97.7322 133.21C97.7322 133.383 97.7759 133.539 97.8632 133.68C97.9506 133.821 98.0731 133.934 98.2308 134.019C98.3906 134.102 98.577 134.143 98.7901 134.143C99.0245 134.143 99.2556 134.091 99.4836 133.987C99.7116 133.88 99.9193 133.729 100.107 133.533C100.294 133.337 100.443 133.103 100.554 132.83C100.665 132.555 100.72 132.25 100.72 131.916H101.714C101.714 132.329 101.669 132.689 101.577 132.996C101.485 133.301 101.367 133.559 101.222 133.77C101.077 133.978 100.924 134.146 100.762 134.271C100.711 134.308 100.662 134.344 100.615 134.38C100.568 134.416 100.519 134.452 100.468 134.489C100.238 134.697 99.9683 134.851 99.6594 134.949C99.3526 135.047 99.0511 135.096 98.7549 135.096Z" fill="#838383"/>
<path d="M91.7901 130.254C91.7603 129.975 91.6346 129.758 91.413 129.602C91.1935 129.446 90.908 129.369 90.5565 129.369C90.3093 129.369 90.0973 129.406 89.9205 129.481C89.7436 129.555 89.6083 129.656 89.5146 129.784C89.4208 129.912 89.3729 130.058 89.3707 130.222C89.3707 130.358 89.4016 130.477 89.4634 130.577C89.5273 130.677 89.6136 130.762 89.7223 130.832C89.831 130.901 89.9513 130.958 90.0835 131.005C90.2156 131.052 90.3487 131.091 90.483 131.123L91.0966 131.277C91.3437 131.334 91.5813 131.412 91.8093 131.51C92.0394 131.608 92.245 131.732 92.4261 131.881C92.6094 132.03 92.7543 132.21 92.8608 132.421C92.9673 132.632 93.0206 132.879 93.0206 133.162C93.0206 133.546 92.9226 133.884 92.7266 134.175C92.5305 134.465 92.2472 134.692 91.8764 134.856C91.5078 135.018 91.0614 135.099 90.5373 135.099C90.0281 135.099 89.5859 135.02 89.2109 134.863C88.8381 134.705 88.5462 134.475 88.3352 134.172C88.1264 133.87 88.0135 133.501 87.9964 133.066H89.163C89.18 133.294 89.2504 133.484 89.3739 133.635C89.4975 133.787 89.6584 133.9 89.8565 133.974C90.0568 134.049 90.2805 134.086 90.5277 134.086C90.7855 134.086 91.0114 134.048 91.2053 133.971C91.4013 133.892 91.5547 133.783 91.6655 133.645C91.7763 133.504 91.8327 133.34 91.8349 133.153C91.8327 132.982 91.7827 132.842 91.6847 132.731C91.5866 132.618 91.4492 132.524 91.2724 132.45C91.0977 132.373 90.8931 132.305 90.6587 132.245L89.9141 132.053C89.375 131.915 88.9489 131.705 88.6357 131.424C88.3246 131.14 88.169 130.764 88.169 130.296C88.169 129.91 88.2734 129.572 88.4822 129.282C88.6932 128.993 88.9798 128.768 89.342 128.608C89.7042 128.446 90.1143 128.365 90.5724 128.365C91.0369 128.365 91.4439 128.446 91.7933 128.608C92.1449 128.768 92.4208 128.99 92.6211 129.276C92.8214 129.559 92.9247 129.885 92.9311 130.254H91.7901Z" fill="#838383"/>
<path d="M79.8067 128.455H81.2577L83.2009 133.197H83.2776L85.2208 128.455H86.6718V135H85.534V130.503H85.4733L83.6643 134.981H82.8142L81.0052 130.494H80.9445V135H79.8067V128.455Z" fill="#838383"/>
<path d="M74.0699 135V128.455H78.327V129.449H75.2556V131.226H78.1065V132.22H75.2556V134.006H78.3526V135H74.0699Z" fill="#838383"/>
<path d="M67.5709 129.449V128.455H72.7932V129.449H70.7701V135H69.5939V129.449H67.5709Z" fill="#838383"/>
<path d="M65.301 130.254C65.2711 129.975 65.1454 129.758 64.9238 129.602C64.7044 129.446 64.4189 129.369 64.0673 129.369C63.8201 129.369 63.6081 129.406 63.4313 129.481C63.2544 129.555 63.1191 129.656 63.0254 129.784C62.9316 129.912 62.8837 130.058 62.8816 130.222C62.8816 130.358 62.9125 130.477 62.9743 130.577C63.0382 130.677 63.1245 130.762 63.2331 130.832C63.3418 130.901 63.4622 130.958 63.5943 131.005C63.7264 131.052 63.8595 131.091 63.9938 131.123L64.6074 131.277C64.8546 131.334 65.0922 131.412 65.3201 131.51C65.5502 131.608 65.7559 131.732 65.937 131.881C66.1202 132.03 66.2651 132.21 66.3716 132.421C66.4782 132.632 66.5314 132.879 66.5314 133.162C66.5314 133.546 66.4334 133.884 66.2374 134.175C66.0414 134.465 65.758 134.692 65.3872 134.856C65.0186 135.018 64.5723 135.099 64.0481 135.099C63.5389 135.099 63.0968 135.02 62.7218 134.863C62.3489 134.705 62.057 134.475 61.8461 134.172C61.6372 133.87 61.5243 133.501 61.5073 133.066H62.6738C62.6909 133.294 62.7612 133.484 62.8848 133.635C63.0083 133.787 63.1692 133.9 63.3674 133.974C63.5676 134.049 63.7914 134.086 64.0385 134.086C64.2963 134.086 64.5222 134.048 64.7161 133.971C64.9121 133.892 65.0655 133.783 65.1763 133.645C65.2871 133.504 65.3436 133.34 65.3457 133.153C65.3436 132.982 65.2935 132.842 65.1955 132.731C65.0975 132.618 64.96 132.524 64.7832 132.45C64.6085 132.373 64.4039 132.305 64.1696 132.245L63.4249 132.053C62.8858 131.915 62.4597 131.705 62.1465 131.424C61.8354 131.14 61.6799 130.764 61.6799 130.296C61.6799 129.91 61.7843 129.572 61.9931 129.282C62.204 128.993 62.4906 128.768 62.8528 128.608C63.215 128.446 63.6252 128.365 64.0833 128.365C64.5478 128.365 64.9547 128.446 65.3042 128.608C65.6557 128.768 65.9316 128.99 66.1319 129.276C66.3322 129.559 66.4355 129.885 66.4419 130.254H65.301Z" fill="#838383"/>
<path d="M54.6894 128.455H56.0286L57.6298 131.35H57.6937L59.2949 128.455H60.634L58.253 132.558V135H57.0705V132.558L54.6894 128.455Z" fill="#838383"/>
<path d="M52.5793 130.254C52.5495 129.975 52.4238 129.758 52.2022 129.602C51.9827 129.446 51.6972 129.369 51.3456 129.369C51.0985 129.369 50.8865 129.406 50.7096 129.481C50.5328 129.555 50.3975 129.656 50.3037 129.784C50.21 129.912 50.1621 130.058 50.1599 130.222C50.1599 130.358 50.1908 130.477 50.2526 130.577C50.3165 130.677 50.4028 130.762 50.5115 130.832C50.6201 130.901 50.7405 130.958 50.8726 131.005C51.0047 131.052 51.1379 131.091 51.2721 131.123L51.8858 131.277C52.1329 131.334 52.3705 131.412 52.5985 131.51C52.8286 131.608 53.0342 131.732 53.2153 131.881C53.3986 132.03 53.5434 132.21 53.65 132.421C53.7565 132.632 53.8098 132.879 53.8098 133.162C53.8098 133.546 53.7118 133.884 53.5157 134.175C53.3197 134.465 53.0363 134.692 52.6656 134.856C52.297 135.018 51.8506 135.099 51.3265 135.099C50.8172 135.099 50.3751 135.02 50.0001 134.863C49.6272 134.705 49.3353 134.475 49.1244 134.172C48.9156 133.87 48.8027 133.501 48.7856 133.066H49.9522C49.9692 133.294 50.0395 133.484 50.1631 133.635C50.2867 133.787 50.4476 133.9 50.6457 133.974C50.846 134.049 51.0697 134.086 51.3169 134.086C51.5747 134.086 51.8005 134.048 51.9944 133.971C52.1905 133.892 52.3439 133.783 52.4547 133.645C52.5655 133.504 52.6219 133.34 52.6241 133.153C52.6219 132.982 52.5719 132.842 52.4738 132.731C52.3758 132.618 52.2384 132.524 52.0616 132.45C51.8868 132.373 51.6823 132.305 51.4479 132.245L50.7032 132.053C50.1642 131.915 49.738 131.705 49.4248 131.424C49.1138 131.14 48.9582 130.764 48.9582 130.296C48.9582 129.91 49.0626 129.572 49.2714 129.282C49.4824 128.993 49.7689 128.768 50.1312 128.608C50.4934 128.446 50.9035 128.365 51.3616 128.365C51.8261 128.365 52.2331 128.446 52.5825 128.608C52.9341 128.768 53.21 128.99 53.4103 129.276C53.6106 129.559 53.7139 129.885 53.7203 130.254H52.5793Z" fill="#838383"/>
<path d="M43.9622 130.254C43.9323 129.975 43.8066 129.758 43.585 129.602C43.3656 129.446 43.08 129.369 42.7285 129.369C42.4813 129.369 42.2693 129.406 42.0925 129.481C41.9156 129.555 41.7803 129.656 41.6866 129.784C41.5928 129.912 41.5449 130.058 41.5428 130.222C41.5428 130.358 41.5737 130.477 41.6354 130.577C41.6994 130.677 41.7857 130.762 41.8943 130.832C42.003 130.901 42.1234 130.958 42.2555 131.005C42.3876 131.052 42.5207 131.091 42.655 131.123L43.2686 131.277C43.5158 131.334 43.7533 131.412 43.9813 131.51C44.2114 131.608 44.4171 131.732 44.5982 131.881C44.7814 132.03 44.9263 132.21 45.0328 132.421C45.1394 132.632 45.1926 132.879 45.1926 133.162C45.1926 133.546 45.0946 133.884 44.8986 134.175C44.7026 134.465 44.4192 134.692 44.0484 134.856C43.6798 135.018 43.2335 135.099 42.7093 135.099C42.2001 135.099 41.758 135.02 41.383 134.863C41.0101 134.705 40.7182 134.475 40.5072 134.172C40.2984 133.87 40.1855 133.501 40.1685 133.066H41.335C41.3521 133.294 41.4224 133.484 41.546 133.635C41.6695 133.787 41.8304 133.9 42.0286 133.974C42.2288 134.049 42.4526 134.086 42.6997 134.086C42.9575 134.086 43.1834 134.048 43.3773 133.971C43.5733 133.892 43.7267 133.783 43.8375 133.645C43.9483 133.504 44.0048 133.34 44.0069 133.153C44.0048 132.982 43.9547 132.842 43.8567 132.731C43.7587 132.618 43.6212 132.524 43.4444 132.45C43.2697 132.373 43.0651 132.305 42.8308 132.245L42.0861 132.053C41.547 131.915 41.1209 131.705 40.8077 131.424C40.4966 131.14 40.3411 130.764 40.3411 130.296C40.3411 129.91 40.4455 129.572 40.6543 129.282C40.8652 128.993 41.1518 128.768 41.514 128.608C41.8762 128.446 42.2864 128.365 42.7445 128.365C43.209 128.365 43.6159 128.446 43.9653 128.608C44.3169 128.768 44.5928 128.99 44.7931 129.276C44.9934 129.559 45.0967 129.885 45.1031 130.254H43.9622Z" fill="#838383"/>
<path d="M37.8474 130.254C37.8176 129.975 37.6919 129.758 37.4703 129.602C37.2508 129.446 36.9653 129.369 36.6138 129.369C36.3666 129.369 36.1546 129.406 35.9778 129.481C35.8009 129.555 35.6656 129.656 35.5719 129.784C35.4781 129.912 35.4302 130.058 35.428 130.222C35.428 130.358 35.4589 130.477 35.5207 130.577C35.5846 130.677 35.6709 130.762 35.7796 130.832C35.8883 130.901 36.0087 130.958 36.1408 131.005C36.2729 131.052 36.406 131.091 36.5403 131.123L37.1539 131.277C37.4011 131.334 37.6386 131.412 37.8666 131.51C38.0967 131.608 38.3023 131.732 38.4834 131.881C38.6667 132.03 38.8116 132.21 38.9181 132.421C39.0246 132.632 39.0779 132.879 39.0779 133.162C39.0779 133.546 38.9799 133.884 38.7839 134.175C38.5878 134.465 38.3045 134.692 37.9337 134.856C37.5651 135.018 37.1187 135.099 36.5946 135.099C36.0854 135.099 35.6432 135.02 35.2682 134.863C34.8954 134.705 34.6035 134.475 34.3925 134.172C34.1837 133.87 34.0708 133.501 34.0538 133.066H35.2203C35.2373 133.294 35.3077 133.484 35.4312 133.635C35.5548 133.787 35.7157 133.9 35.9138 133.974C36.1141 134.049 36.3378 134.086 36.585 134.086C36.8428 134.086 37.0687 134.048 37.2626 133.971C37.4586 133.892 37.612 133.783 37.7228 133.645C37.8336 133.504 37.89 133.34 37.8922 133.153C37.89 132.982 37.84 132.842 37.742 132.731C37.644 132.618 37.5065 132.524 37.3297 132.45C37.155 132.373 36.9504 132.305 36.716 132.245L35.9714 132.053C35.4323 131.915 35.0062 131.705 34.693 131.424C34.3819 131.14 34.2263 130.764 34.2263 130.296C34.2263 129.91 34.3307 129.572 34.5396 129.282C34.7505 128.993 35.0371 128.768 35.3993 128.608C35.7615 128.446 36.1717 128.365 36.6297 128.365C37.0942 128.365 37.5012 128.446 37.8506 128.608C38.2022 128.768 38.4781 128.99 38.6784 129.276C38.8787 129.559 38.982 129.885 38.9884 130.254H37.8474Z" fill="#838383"/>
<path d="M28.5535 135V128.455H32.8106V129.449H29.7392V131.226H32.59V132.22H29.7392V134.006H32.8361V135H28.5535Z" fill="#838383"/>
<path d="M27.1976 130.663H26.0023C25.9682 130.467 25.9054 130.293 25.8137 130.142C25.7221 129.989 25.6081 129.859 25.4718 129.752C25.3354 129.646 25.1799 129.566 25.0051 129.512C24.8326 129.457 24.6461 129.429 24.4458 129.429C24.09 129.429 23.7747 129.519 23.4998 129.698C23.225 129.875 23.0098 130.135 22.8542 130.478C22.6987 130.819 22.6209 131.235 22.6209 131.727C22.6209 132.228 22.6987 132.65 22.8542 132.993C23.0119 133.334 23.2271 133.592 23.4998 133.766C23.7747 133.939 24.0889 134.025 24.4426 134.025C24.6387 134.025 24.8219 134 24.9924 133.949C25.1649 133.895 25.3194 133.818 25.4558 133.715C25.5943 133.613 25.7104 133.487 25.8041 133.338C25.9 133.189 25.9661 133.019 26.0023 132.827L27.1976 132.833C27.1529 133.144 27.0559 133.436 26.9068 133.709C26.7598 133.982 26.5669 134.222 26.3283 134.431C26.0897 134.638 25.8105 134.8 25.4909 134.917C25.1713 135.032 24.8166 135.09 24.4267 135.09C23.8514 135.09 23.3379 134.956 22.8862 134.69C22.4345 134.424 22.0786 134.039 21.8187 133.536C21.5588 133.033 21.4288 132.43 21.4288 131.727C21.4288 131.022 21.5598 130.419 21.8219 129.918C22.084 129.416 22.4409 129.031 22.8926 128.765C23.3443 128.498 23.8556 128.365 24.4267 128.365C24.791 128.365 25.1298 128.416 25.443 128.519C25.7562 128.621 26.0353 128.771 26.2804 128.969C26.5254 129.165 26.7267 129.406 26.8844 129.691C27.0442 129.975 27.1486 130.299 27.1976 130.663Z" fill="#838383"/>
<path d="M20.204 131.727C20.204 132.433 20.0719 133.037 19.8077 133.539C19.5456 134.04 19.1877 134.424 18.7338 134.69C18.2821 134.956 17.7697 135.09 17.1965 135.09C16.6234 135.09 16.1099 134.956 15.656 134.69C15.2043 134.422 14.8464 134.037 14.5822 133.536C14.3201 133.033 14.1891 132.43 14.1891 131.727C14.1891 131.022 14.3201 130.419 14.5822 129.918C14.8464 129.416 15.2043 129.031 15.656 128.765C16.1099 128.498 16.6234 128.365 17.1965 128.365C17.7697 128.365 18.2821 128.498 18.7338 128.765C19.1877 129.031 19.5456 129.416 19.8077 129.918C20.0719 130.419 20.204 131.022 20.204 131.727ZM19.0119 131.727C19.0119 131.231 18.9341 130.812 18.7786 130.471C18.6252 130.128 18.4121 129.869 18.1394 129.695C17.8666 129.518 17.5524 129.429 17.1965 129.429C16.8407 129.429 16.5264 129.518 16.2537 129.695C15.981 129.869 15.7668 130.128 15.6113 130.471C15.4579 130.812 15.3812 131.231 15.3812 131.727C15.3812 132.224 15.4579 132.644 15.6113 132.987C15.7668 133.327 15.981 133.586 16.2537 133.763C16.5264 133.938 16.8407 134.025 17.1965 134.025C17.5524 134.025 17.8666 133.938 18.1394 133.763C18.4121 133.586 18.6252 133.327 18.7786 132.987C18.9341 132.644 19.0119 132.224 19.0119 131.727Z" fill="#838383"/>
<path d="M8.23175 135V128.455H10.6863C11.1891 128.455 11.611 128.542 11.9519 128.717C12.295 128.891 12.5538 129.136 12.7286 129.452C12.9054 129.765 12.9938 130.13 12.9938 130.548C12.9938 130.968 12.9043 131.332 12.7254 131.641C12.5485 131.948 12.2875 132.185 11.9423 132.354C11.5972 132.52 11.1732 132.603 10.6703 132.603H8.92209V131.619H10.5105C10.8045 131.619 11.0453 131.578 11.2328 131.497C11.4203 131.414 11.5588 131.294 11.6483 131.136C11.7399 130.976 11.7857 130.78 11.7857 130.548C11.7857 130.316 11.7399 130.118 11.6483 129.954C11.5567 129.787 11.4171 129.662 11.2296 129.576C11.0421 129.489 10.8003 129.445 10.5041 129.445H9.41748V135H8.23175ZM11.6131 132.034L13.2335 135H11.9104L10.3188 132.034H11.6131Z" fill="#838383"/>
<path d="M2.16975 135V128.455H4.6243C5.12714 128.455 5.54902 128.548 5.88993 128.736C6.23296 128.923 6.49184 129.181 6.66656 129.509C6.8434 129.835 6.93183 130.206 6.93183 130.621C6.93183 131.041 6.8434 131.414 6.66656 131.74C6.48971 132.066 6.2287 132.323 5.88353 132.51C5.53836 132.696 5.11329 132.788 4.60832 132.788H2.98154V131.814H4.44852C4.74255 131.814 4.98332 131.762 5.17082 131.66C5.35832 131.558 5.49681 131.417 5.5863 131.238C5.67792 131.059 5.72373 130.854 5.72373 130.621C5.72373 130.389 5.67792 130.185 5.5863 130.008C5.49681 129.831 5.35725 129.694 5.16762 129.596C4.98012 129.495 4.73829 129.445 4.44213 129.445H3.35548V135H2.16975Z" fill="#838383"/>
<path d="M164.421 110.638C164.364 110.065 164.121 109.62 163.69 109.303C163.259 108.985 162.674 108.827 161.935 108.827C161.434 108.827 161.01 108.898 160.664 109.04C160.318 109.177 160.053 109.369 159.869 109.615C159.689 109.861 159.599 110.141 159.599 110.453C159.589 110.714 159.644 110.941 159.762 111.135C159.885 111.329 160.053 111.497 160.266 111.639C160.479 111.777 160.726 111.897 161.005 112.001C161.284 112.101 161.583 112.186 161.9 112.257L163.207 112.57C163.841 112.712 164.424 112.901 164.954 113.138C165.484 113.375 165.943 113.666 166.332 114.011C166.72 114.357 167.021 114.764 167.234 115.233C167.451 115.702 167.563 116.239 167.567 116.845C167.563 117.735 167.335 118.507 166.886 119.161C166.441 119.809 165.797 120.314 164.954 120.673C164.116 121.028 163.105 121.206 161.921 121.206C160.747 121.206 159.724 121.026 158.853 120.666C157.987 120.306 157.309 119.774 156.822 119.068C156.339 118.358 156.085 117.48 156.062 116.433H159.038C159.071 116.921 159.21 117.328 159.457 117.655C159.708 117.977 160.041 118.221 160.458 118.386C160.88 118.547 161.355 118.628 161.886 118.628C162.407 118.628 162.859 118.552 163.242 118.401C163.63 118.249 163.931 118.038 164.144 117.769C164.357 117.499 164.464 117.189 164.464 116.838C164.464 116.511 164.367 116.237 164.173 116.014C163.983 115.792 163.704 115.602 163.335 115.446C162.97 115.29 162.523 115.148 161.992 115.02L160.408 114.622C159.182 114.324 158.214 113.858 157.504 113.223C156.793 112.589 156.441 111.734 156.445 110.659C156.441 109.778 156.675 109.009 157.148 108.351C157.627 107.693 158.282 107.179 159.116 106.81C159.949 106.44 160.896 106.256 161.957 106.256C163.036 106.256 163.978 106.44 164.783 106.81C165.593 107.179 166.223 107.693 166.673 108.351C167.122 109.009 167.354 109.771 167.369 110.638H164.421Z" fill="black"/>
<path d="M151.316 110.638C151.259 110.065 151.015 109.62 150.584 109.303C150.153 108.985 149.569 108.827 148.83 108.827C148.328 108.827 147.904 108.898 147.559 109.04C147.213 109.177 146.948 109.369 146.763 109.615C146.583 109.861 146.493 110.141 146.493 110.453C146.484 110.714 146.538 110.941 146.657 111.135C146.78 111.329 146.948 111.497 147.161 111.639C147.374 111.777 147.62 111.897 147.9 112.001C148.179 112.101 148.477 112.186 148.794 112.257L150.101 112.57C150.736 112.712 151.318 112.901 151.848 113.138C152.379 113.375 152.838 113.666 153.226 114.011C153.614 114.357 153.915 114.764 154.128 115.233C154.346 115.702 154.457 116.239 154.462 116.845C154.457 117.735 154.23 118.507 153.78 119.161C153.335 119.809 152.691 120.314 151.848 120.673C151.01 121.028 149.999 121.206 148.816 121.206C147.641 121.206 146.619 121.026 145.748 120.666C144.881 120.306 144.204 119.774 143.716 119.068C143.233 118.358 142.98 117.48 142.956 116.433H145.932C145.965 116.921 146.105 117.328 146.351 117.655C146.602 117.977 146.936 118.221 147.353 118.386C147.774 118.547 148.25 118.628 148.78 118.628C149.301 118.628 149.753 118.552 150.137 118.401C150.525 118.249 150.826 118.038 151.039 117.769C151.252 117.499 151.358 117.189 151.358 116.838C151.358 116.511 151.261 116.237 151.067 116.014C150.878 115.792 150.598 115.602 150.229 115.446C149.864 115.29 149.417 115.148 148.887 115.02L147.303 114.622C146.077 114.324 145.108 113.858 144.398 113.223C143.688 112.589 143.335 111.734 143.34 110.659C143.335 109.778 143.569 109.009 144.043 108.351C144.521 107.693 145.177 107.179 146.01 106.81C146.844 106.44 147.791 106.256 148.851 106.256C149.931 106.256 150.873 106.44 151.678 106.81C152.488 107.179 153.117 107.693 153.567 108.351C154.017 109.009 154.249 109.771 154.263 110.638H151.316Z" fill="black"/>
<path d="M131.179 121V106.455H140.98V108.99H134.254V112.456H140.476V114.992H134.254V118.465H141.009V121H131.179Z" fill="black"/>
<path d="M119.831 121V106.455H122.907V118.465H129.142V121H119.831Z" fill="black"/>
<path d="M117.291 106.455V121H114.634L108.306 111.845H108.2V121H105.124V106.455H107.823L114.102 115.602H114.229V106.455H117.291Z" fill="black"/>
<path d="M102.594 106.455V121H99.5188V106.455H102.594Z" fill="black"/>
<path d="M87.065 121H83.7695L88.7909 106.455H92.7539L97.7681 121H94.4727L90.8292 109.778H90.7156L87.065 121ZM86.859 115.283H94.6431V117.683H86.859V115.283Z" fill="black"/>
<path d="M72.4219 108.99V106.455H84.3679V108.99H79.9148V121H76.875V108.99H72.4219Z" fill="black"/>
<path d="M67.761 110.638C67.7042 110.065 67.4604 109.62 67.0295 109.303C66.5986 108.985 66.0139 108.827 65.2752 108.827C64.7733 108.827 64.3496 108.898 64.0039 109.04C63.6583 109.177 63.3931 109.369 63.2085 109.615C63.0285 109.861 62.9386 110.141 62.9386 110.453C62.9291 110.714 62.9836 110.941 63.1019 111.135C63.225 111.329 63.3931 111.497 63.6062 111.639C63.8193 111.777 64.0655 111.897 64.3448 112.001C64.6242 112.101 64.9225 112.186 65.2397 112.257L66.5465 112.57C67.181 112.712 67.7634 112.901 68.2937 113.138C68.824 113.375 69.2833 113.666 69.6715 114.011C70.0598 114.357 70.3604 114.764 70.5735 115.233C70.7913 115.702 70.9026 116.239 70.9073 116.845C70.9026 117.735 70.6753 118.507 70.2255 119.161C69.7804 119.809 69.1365 120.314 68.2937 120.673C67.4556 121.028 66.4447 121.206 65.261 121.206C64.0868 121.206 63.064 121.026 62.1928 120.666C61.3264 120.306 60.6493 119.774 60.1616 119.068C59.6786 118.358 59.4253 117.48 59.4016 116.433H62.3775C62.4106 116.921 62.5503 117.328 62.7965 117.655C63.0475 117.977 63.3813 118.221 63.798 118.386C64.2194 118.547 64.6952 118.628 65.2255 118.628C65.7463 118.628 66.1985 118.552 66.582 118.401C66.9703 118.249 67.271 118.038 67.484 117.769C67.6971 117.499 67.8036 117.189 67.8036 116.838C67.8036 116.511 67.7066 116.237 67.5124 116.014C67.323 115.792 67.0437 115.602 66.6744 115.446C66.3098 115.29 65.8623 115.148 65.332 115.02L63.7482 114.622C62.5219 114.324 61.5536 113.858 60.8434 113.223C60.1332 112.589 59.7804 111.734 59.7852 110.659C59.7804 109.778 60.0148 109.009 60.4883 108.351C60.9665 107.693 61.6223 107.179 62.4556 106.81C63.2889 106.44 64.2359 106.256 65.2965 106.256C66.3761 106.256 67.3183 106.44 68.1232 106.81C68.9329 107.179 69.5626 107.693 70.0124 108.351C70.4622 109.009 70.6943 109.771 70.7085 110.638H67.761Z" fill="black"/>
<path d="M43.8281 106.455L46.7614 111.412H46.875L49.8225 106.455H53.2955L48.8565 113.727L53.3949 121H49.858L46.875 116.036H46.7614L43.7784 121H40.2557L44.8083 113.727L40.3409 106.455H43.8281Z" fill="black"/>
<path d="M28.6985 121V106.455H38.4997V108.99H31.7738V112.456H37.9954V114.992H31.7738V118.465H38.5281V121H28.6985Z" fill="black"/>
<path d="M15.7493 121V106.455H21.4879C22.5912 106.455 23.531 106.665 24.3075 107.087C25.0841 107.503 25.6759 108.083 26.0831 108.827C26.495 109.565 26.701 110.418 26.701 111.384C26.701 112.349 26.4927 113.202 26.076 113.94C25.6593 114.679 25.0556 115.254 24.2649 115.666C23.4789 116.078 22.5272 116.284 21.4098 116.284H17.7521V113.82H20.9127C21.5045 113.82 21.9922 113.718 22.3757 113.514C22.764 113.306 23.0528 113.019 23.2422 112.655C23.4363 112.286 23.5334 111.862 23.5334 111.384C23.5334 110.901 23.4363 110.479 23.2422 110.119C23.0528 109.755 22.764 109.473 22.3757 109.274C21.9875 109.071 21.495 108.969 20.8984 108.969H18.8246V121H15.7493Z" fill="black"/>
<path d="M3.29545 121H0L5.02131 106.455H8.98438L13.9986 121H10.7031L7.05966 109.778H6.94602L3.29545 121ZM3.08949 115.283H10.8736V117.683H3.08949V115.283Z" fill="black"/>
<path d="M9.6283 45.8764L26.9723 31.9463H27.8321L12.1518 45.8764V96H39.9047V36.5611L68.5482 17.5914L70.0815 17.5948L55.8548 36.17V96H86.437L86.5221 24.6908L122.206 1.17679H124.572L105.866 24.4692V96H110.702V24.4692L125.759 1.17679H126.768L118.359 24.5733L118.354 24.5901H118.359V96H166.524V24.0764L128.717 0H122.179L85.3563 24.0109L73.5952 16.6463H68.3762L38.4492 36.3295L30.2579 31.1992H26.4075L3.52415 45.8764V96H9.6283V45.8764Z" fill="#5B5B5B"/>
</svg>
