<svg width="117" height="24" viewBox="0 0 117 24" fill="none" xmlns="http://www.w3.org/2000/svg">
<path fill-rule="evenodd" clip-rule="evenodd" d="M36.3524 14.8806C36.4277 14.7358 36.5528 14.4967 36.6034 14.3761L39.6597 7.27257L42.6661 14.4482C42.7161 14.5681 42.8166 14.7607 42.8911 14.9278L42.5157 14.9998C41.6642 15.2167 40.7122 15.3595 39.735 15.3595C38.7577 15.3595 37.8563 15.2396 36.9043 14.9998C36.7286 14.9527 36.4776 14.8806 36.3524 14.8806ZM5.2612 4.05654C8.66903 4.05654 11.0736 4.72871 12.5768 6.00032C14.3809 7.51236 15.2823 9.50396 15.2823 12.0006C15.2823 14.3761 14.4056 16.3442 12.6767 17.8798C11.1735 19.2483 8.7183 19.9683 5.26054 19.9683H4.15877V4.05654H5.2612ZM110.485 6.09662C112.189 7.68008 113.016 9.67232 113.016 12.0006C113.016 14.3034 112.164 16.2715 110.485 17.9047C108.807 19.5124 106.777 20.3286 104.397 20.3286C99.612 20.3286 95.8041 16.561 95.8041 12.0006C95.8041 9.69591 96.6555 7.70431 98.3345 6.07238C99.9881 4.46469 102.043 3.67264 104.397 3.67264C106.752 3.67264 108.782 4.48828 110.485 6.09662ZM70.1245 7.48812L73.1569 4.99208C70.5512 1.65616 67.0682 0 62.9593 0C55.9699 0 50.3333 5.35176 50.3333 12.0472C50.3333 18.5985 55.9453 23.9994 62.7843 23.9994C64.5138 23.9994 66.1675 23.6397 67.7705 22.9433C69.323 22.2718 70.6764 21.3356 71.7788 20.1112C72.8307 18.9837 73.507 17.6872 73.9071 16.2715C74.2333 15.0955 74.4337 13.6555 74.3339 11.9279L74.2846 11.2315H63.3601V14.9035H70.0759C69.9002 16.3435 69.1226 17.5915 67.7705 18.624C66.2919 19.7764 64.6137 20.328 62.735 20.328C60.5561 20.328 58.6015 19.4639 56.7974 17.7599C55.1691 16.1758 54.3422 14.2799 54.3422 12.0721C54.3422 9.74438 55.1937 7.72791 56.9479 6.04815C58.6015 4.44045 60.606 3.672 62.9114 3.672C65.8646 3.67264 68.1946 4.96849 70.1245 7.48812ZM44.4449 18.5519L46.6744 23.6403H51.0842L40.7369 0.312487H38.7324L28.1095 23.6403H32.4939L34.8239 18.4563C34.8745 18.3115 34.8992 18.2159 34.9244 18.1202C35.0243 18.1687 35.1748 18.2159 35.3505 18.2886C36.6533 18.7681 38.2065 19.0322 39.7343 19.0322C41.2375 19.0322 42.7154 18.7445 43.5922 18.4569C44.0435 18.3122 44.1933 18.2401 44.3191 18.1693C44.3444 18.2643 44.4196 18.4799 44.4449 18.5519ZM5.13605 23.6403C9.59572 23.6403 13.0275 22.6799 15.3329 20.6883C17.9638 18.4314 19.2913 15.5515 19.2913 12.0242C19.2913 8.35224 17.9385 5.40023 15.2324 3.19243C12.9523 1.32009 9.57042 0.384549 5.18598 0.384549H0V23.6403H5.13605ZM22.548 0.384549V23.6403H26.5317V0.384549H22.548ZM80.9232 12.7914H89.4165V9.14429H80.9232V4.05654H90.1681V0.384549H76.9395V23.6403H90.1927V19.9683H80.9232V12.7914ZM95.5038 3.52851C93.0227 5.8562 91.7958 8.71191 91.7958 12.0242C91.7958 18.7203 97.4324 24 104.398 24C111.388 24 117 18.7439 117 12.0242C117 8.73614 115.748 5.92826 113.318 3.55211C110.862 1.17596 107.88 0.000637371 104.399 0.000637371C100.94 0.000637371 97.9583 1.1766 95.5038 3.52851Z" fill="#6D696E"/>
</svg>
