<svg width="140" height="54" viewBox="0 0 140 54" fill="none" xmlns="http://www.w3.org/2000/svg">
<path d="M3.3061 21.3818C4.93581 15.8491 11.7229 14.5324 17.9717 14.3697C23.1086 14.236 28.8363 14.8668 28.8363 14.8668L26.1451 24.004C26.1451 24.004 20.4174 23.3733 15.2805 23.507C9.03163 23.6697 2.24444 24.9863 0.614868 30.5191L3.3061 21.3818Z" fill="#6D696E"/>
<path d="M60.6934 16.8736L54.3334 38.4672H59.6782L62.0333 30.4709H66.676C71.7988 30.4709 75.1983 27.8452 76.1175 24.1956C76.9759 20.7878 74.8327 16.8734 69.0923 16.8734H60.6934V16.8736ZM65.2898 19.4144H67.3449C69.4964 19.4144 71.2034 21.0137 70.7913 23.7971C70.4093 26.3772 67.3921 27.9238 64.7615 27.9238H62.7835L65.2898 19.4144ZM115.974 23.5965C111.48 23.5965 108.238 27.1866 107.46 30.7746C106.712 34.2225 108.841 38.8044 114.703 38.8044C118.87 38.8044 120.965 37.1007 120.965 37.1007L120.006 34.9026C120.006 34.9026 118.254 36.2266 115.814 36.2266C113.373 36.2266 111.842 34.4375 112.181 31.5864H122.147C122.86 29.9075 123.25 23.5965 115.974 23.5965ZM115.954 25.9798C118.742 25.9798 118.107 29.3978 118.107 29.3978L112.523 29.3856C112.523 29.3856 113.45 25.9797 115.954 25.9797L115.954 25.9798ZM78.2626 23.0517L69.4752 52.8816H74.6019L82.3932 26.4317H87.7181L84.1732 38.4672H89.2998L93.5512 24.0335H83.0998C83.6354 22.2143 84.2063 20.2764 84.6717 18.696C85.5313 15.7776 86.9357 13.6582 88.9778 13.7295C91.2345 13.8082 90.0858 15.1843 89.7769 16.2335C89.3493 17.6851 90.5036 19.1449 92.5261 19.1449C96.9191 19.1449 98.0026 11.6537 89.776 11.6537C81.5496 11.6537 79.442 19.0472 78.2626 23.0517Z" fill="#6D696E"/>
<path d="M95.483 24.0338L94.7765 26.4321H101.275L91.0588 38.4673H105.485L106.192 36.069H98.8607L109.077 24.0338H95.483ZM135.839 23.7906C132.497 23.7906 130.526 26.9959 130.526 26.9959L131.398 24.0338H126.272L122.021 38.4673H127.147C127.147 38.4673 128.382 34.2503 129.01 32.1448C129.98 28.8538 131.958 26.7933 132.909 26.7089C134.008 26.6114 133.903 29.0708 136.047 29.0708C139.299 29.0708 140 23.7906 135.84 23.7906H135.839ZM42.3026 38.5009C23.9173 37.4362 2.5519 28.6296 3.30612 21.3818L0.769573 29.9941C1.8288e-05 37.389 19.8194 46.1686 39.6114 47.6381L42.3026 38.5009Z" fill="#6D696E"/>
<path d="M48.984 26.6261C47.3543 32.159 40.5673 33.4757 34.3184 33.6383C29.1815 33.7721 23.4539 33.1412 23.4539 33.1412L26.1452 24.004C26.1452 24.004 31.8726 24.6347 37.0098 24.5011C43.2585 24.3383 50.0457 23.0217 51.6753 17.4889L48.984 26.6261Z" fill="#6D696E"/>
<path d="M9.98737 9.50711C28.3727 10.5717 49.7381 19.3783 48.984 26.6263L51.5205 18.0138C52.29 10.6189 32.4707 1.83941 12.6787 0.369873L9.98737 9.50711Z" fill="#6D696E"/>
<path d="M3.3061 21.3818C4.93581 15.8491 11.7229 14.5324 17.9717 14.3697C23.1086 14.236 28.8363 14.8668 28.8363 14.8668L26.1451 24.004C26.1451 24.004 20.4174 23.3733 15.2805 23.507C9.03163 23.6697 2.24444 24.9863 0.614868 30.5191L3.3061 21.3818Z" fill="#6D696E"/>
<path d="M42.3026 38.5009C23.9173 37.4362 2.5519 28.6296 3.30612 21.3818L0.769573 29.9941C1.8288e-05 37.389 19.8194 46.1686 39.6114 47.6381L42.3026 38.5009Z" fill="#6D696E"/>
<path d="M48.984 26.6261C47.3543 32.159 40.5672 33.4757 34.3184 33.6383C29.1815 33.7721 23.4539 33.1412 23.4539 33.1412L26.1451 24.004C26.1451 24.004 31.8726 24.6347 37.0097 24.5011C43.2584 24.3383 50.0456 23.0217 51.6752 17.4889L48.984 26.6261Z" fill="#6D696E"/>
<path d="M9.98737 9.50711C28.3727 10.5717 49.7381 19.3783 48.984 26.6263L51.5205 18.0138C52.29 10.6189 32.4707 1.83941 12.6787 0.369873L9.98737 9.50711Z" fill="#6D696E"/>
</svg>
